<?xml version="1.0" encoding="iso-8859-1"?>
<!-- Generator: Adobe Illustrator 19.0.0, SVG Export Plug-In . SVG Version: 6.00 Build 0)  -->
<svg version="1.1" id="Capa_1" xmlns="http://www.w3.org/2000/svg" xmlns:xlink="http://www.w3.org/1999/xlink" x="0px" y="0px"
	 viewBox="0 0 426.667 426.667" style="enable-background:new 0 0 426.667 426.667;" xml:space="preserve">
<g>
	<g>
		<g>
			<path d="M384,0H128c-23.573,0-42.667,19.093-42.667,42.667v256c0,23.573,19.093,42.667,42.667,42.667h256
				c23.573,0,42.667-19.093,42.667-42.667v-256C426.667,19.093,407.573,0,384,0z M341.333,106.667h-64V224
				c0,29.44-23.893,53.333-53.333,53.333S170.667,253.44,170.667,224S194.56,170.667,224,170.667c12.053,0,23.04,4.16,32,10.88V64
				h85.333V106.667z"/>
			<path d="M42.667,85.333H0V384c0,23.573,19.093,42.667,42.667,42.667h298.667V384H42.667V85.333z"/>
		</g>
	</g>
</g>
</svg>
