<?xml version="1.0" encoding="UTF-8"?>
<svg xmlns="http://www.w3.org/2000/svg" xmlns:xlink="http://www.w3.org/1999/xlink" width="24pt" height="24pt" viewBox="0 0 24 24" version="1.1">
<g id="surface18077212">
<path style=" stroke:none;fill-rule:nonzero;fill:rgb(100%,100%,100%);fill-opacity:1;" d="M 0.601562 12 C 0.601562 5.703125 5.703125 0.601562 12 0.601562 C 18.296875 0.601562 23.398438 5.703125 23.398438 12 C 23.398438 18.296875 18.296875 23.398438 12 23.398438 C 5.703125 23.398438 0.601562 18.296875 0.601562 12 Z M 12 22.921875 C 18.03125 22.921875 22.921875 18.03125 22.921875 12 C 22.921875 5.96875 18.03125 1.078125 12 1.078125 C 5.96875 1.078125 1.078125 5.96875 1.078125 12 C 1.078125 18.03125 5.96875 22.921875 12 22.921875 Z M 12 22.921875 "/>
<path style=" stroke:none;fill-rule:nonzero;fill:rgb(100%,0%,0%);fill-opacity:1;" d="M 12 20.878906 C 7.105469 20.878906 3.121094 16.894531 3.121094 12 C 3.121094 7.105469 7.105469 3.121094 12 3.121094 C 16.894531 3.121094 20.878906 7.105469 20.878906 12 C 20.878906 16.894531 16.894531 20.878906 12 20.878906 Z M 12 20.878906 "/>
<path style=" stroke:none;fill-rule:nonzero;fill:rgb(100%,100%,100%);fill-opacity:1;" d="M 12 3.359375 C 16.765625 3.359375 20.640625 7.234375 20.640625 12 C 20.640625 16.765625 16.765625 20.640625 12 20.640625 C 7.234375 20.640625 3.359375 16.765625 3.359375 12 C 3.359375 7.234375 7.234375 3.359375 12 3.359375 M 12 2.878906 C 6.964844 2.878906 2.878906 6.964844 2.878906 12 C 2.878906 17.035156 6.964844 21.121094 12 21.121094 C 17.035156 21.121094 21.121094 17.035156 21.121094 12 C 21.121094 6.964844 17.035156 2.878906 12 2.878906 Z M 12 2.878906 "/>
<path style=" stroke:none;fill-rule:nonzero;fill:rgb(100%,100%,100%);fill-opacity:1;" d="M 12 17.28125 C 9.089844 17.28125 6.71875 14.910156 6.71875 12 C 6.71875 9.089844 9.089844 6.71875 12 6.71875 C 14.910156 6.71875 17.28125 9.089844 17.28125 12 C 17.28125 14.910156 14.910156 17.28125 12 17.28125 Z M 12 7.679688 C 9.617188 7.679688 7.679688 9.617188 7.679688 12 C 7.679688 14.382812 9.617188 16.320312 12 16.320312 C 14.382812 16.320312 16.320312 14.382812 16.320312 12 C 16.320312 9.617188 14.382812 7.679688 12 7.679688 Z M 12 7.679688 "/>
<path style=" stroke:none;fill-rule:nonzero;fill:rgb(100%,100%,100%);fill-opacity:1;" d="M 10.078125 9.601562 L 10.078125 14.398438 L 14.398438 12 Z M 10.078125 9.601562 "/>
</g>
</svg>
